<svg xmlns="http://www.w3.org/2000/svg" data-name="Layer 1" viewBox="0 0 512 640" x="0px" y="0px"><title>Song</title><path d="M86.754,409.816a8,8,0,0,0-11.313,0l-9.952,9.952-9.952-9.952a8,8,0,1,0-11.313,11.313l9.951,9.952-9.951,9.952a8,8,0,1,0,11.313,11.313l9.952-9.952,9.952,9.952a8,8,0,0,0,11.313-11.313L76.8,431.081l9.952-9.952A8,8,0,0,0,86.754,409.816Z"/><path d="M469.174,419.66l-26.077-3.8L431.43,392.136a8,8,0,0,0-14.357,0l-11.667,23.722-26.078,3.8a8,8,0,0,0-4.439,13.635l18.886,18.473-4.46,26.092a8,8,0,0,0,11.619,8.423l23.317-12.3,23.318,12.3a8,8,0,0,0,11.619-8.423l-4.46-26.092L473.614,433.3a8,8,0,0,0-4.44-13.635Z"/><path d="M58,85V99a8,8,0,0,0,16,0V85H88a8,8,0,0,0,0-16H74V55a8,8,0,0,0-16,0V69H44a8,8,0,0,0,0,16Z"/><path d="M353.775,142.794A164.958,164.958,0,0,0,341,131.289v65.243a40.1,40.1,0,1,1-16-32V119.843C261.721,80.13,177,87.778,121.985,142.794c-63.9,63.905-63.9,167.886,0,231.791a164.085,164.085,0,0,0,231.79,0h0C417.68,310.68,417.68,206.7,353.775,142.794Zm-23.238,115.9a8,8,0,1,1,16,0A108.78,108.78,0,0,1,237.88,367.346a8,8,0,0,1,0-16A92.762,92.762,0,0,0,330.537,258.689Zm-36.447,0a8,8,0,1,1,16,0,72.291,72.291,0,0,1-72.21,72.21,8,8,0,0,1,0-16A56.273,56.273,0,0,0,294.09,258.689Zm-179.522,0a8,8,0,0,1-16,0c0-76.816,62.495-139.312,139.312-139.312a8,8,0,0,1,0,16A123.452,123.452,0,0,0,114.568,258.689Zm22.656,8a8,8,0,0,1-8-8A108.779,108.779,0,0,1,237.88,150.033a8,8,0,0,1,0,16,92.761,92.761,0,0,0-92.656,92.656A8,8,0,0,1,137.224,266.689Zm44.447-8a8,8,0,0,1-16,0A72.291,72.291,0,0,1,237.88,186.48a8,8,0,0,1,0,16A56.272,56.272,0,0,0,181.671,258.689Zm22.414,0a33.8,33.8,0,1,1,33.795,33.8A33.833,33.833,0,0,1,204.085,258.689ZM237.88,398a8,8,0,0,1,0-16A123.453,123.453,0,0,0,361.193,258.689a8,8,0,0,1,16,0C377.193,335.507,314.7,398,237.88,398Z"/><path d="M255.676,258.689a17.8,17.8,0,1,0-17.8,17.8A17.816,17.816,0,0,0,255.676,258.689Z"/><path d="M341,113.136A50.786,50.786,0,0,1,409.688,98.68a50.709,50.709,0,0,1,23.955,43.164A8.152,8.152,0,0,0,441.651,150h.006A8.6,8.6,0,0,0,450,141.664v-.013h0c0-64.438-52.511-116.858-116.791-116.858a8.181,8.181,0,0,0-8.209,8v87.051a162.976,162.976,0,0,1,16,11.446Z"/><text x="0" y="527" fill="#000000" font-size="5px" font-weight="bold" font-family="'Helvetica Neue', Helvetica, Arial-Unicode, Arial, Sans-serif">Created by Shastry</text><text x="0" y="532" fill="#000000" font-size="5px" font-weight="bold" font-family="'Helvetica Neue', Helvetica, Arial-Unicode, Arial, Sans-serif">from the Noun Project</text></svg>