<svg xmlns="http://www.w3.org/2000/svg" xmlns:xlink="http://www.w3.org/1999/xlink" version="1.1" x="0px" y="0px" viewBox="0 0 512 640" style="enable-background:new 0 0 512 512;" xml:space="preserve"><g><path d="M435.4,183.7l-92.8-84.1c-7.1-6.5-17.3-8.1-26.1-4.2c-8.8,3.9-14.5,12.3-14.5,21.9v180.1c-11-8.4-25.5-13.4-40.8-13.4   c-38.5,0-69.8,31.3-69.8,69.9c0,38.6,31.4,69.9,69.9,69.9s69.7-31.3,69.7-69.9c0-3.6,0-7.2-1-10.6v-217l86.4,78.1   c5.7,5.2,14.7,4.8,19.9-1C441.5,197.8,441.1,188.8,435.4,183.7z M261.4,395.8c-23.1,0-41.9-18.8-41.9-41.9   c0-23.1,18.8-41.9,41.9-41.9c23.1,0,41.9,18.8,41.9,41.9C303.3,377,284.5,395.8,261.4,395.8z"/><path d="M86,116.2h158.7c7.7,0,14-6.3,14-14c0-7.7-6.3-14-14-14H86c-7.7,0-14,6.3-14,14C72,109.9,78.3,116.2,86,116.2z"/><path d="M86,185.2h158.7c7.7,0,14-6.3,14-14c0-7.7-6.3-14-14-14H86c-7.7,0-14,6.3-14,14C72,178.9,78.3,185.2,86,185.2z"/><path d="M258.7,241.2c0-7.7-6.3-14-14-14H86c-7.7,0-14,6.3-14,14c0,7.7,6.3,14,14,14h158.7C252.4,255.2,258.7,249,258.7,241.2z"/></g><text x="0" y="527" fill="#000000" font-size="5px" font-weight="bold" font-family="'Helvetica Neue', Helvetica, Arial-Unicode, Arial, Sans-serif">Created by Delta</text><text x="0" y="532" fill="#000000" font-size="5px" font-weight="bold" font-family="'Helvetica Neue', Helvetica, Arial-Unicode, Arial, Sans-serif">from the Noun Project</text></svg>